<svg width="300" height="100" viewBox="0 0 300 100" fill="none" xmlns="http://www.w3.org/2000/svg">
<path d="M101.782 35.3456C92.628 35.3456 85 39.2291 85 50.9455C85 60.2274 90.1293 66.0726 102.018 66.0726C116.012 66.0726 116.909 56.8545 116.909 56.8545H110.129C110.129 56.8545 108.675 61.8181 101.605 61.8181C95.8463 61.8181 91.7046 57.9282 91.7046 52.476H117.618V49.0546C117.618 43.6606 114.194 35.3456 101.782 35.3456ZM101.546 39.7183C107.027 39.7183 110.764 43.0763 110.764 48.1091H91.8546C91.8546 42.7661 96.7321 39.7183 101.546 39.7183Z" fill="#E53238"/>
<path d="M117.615 24V60.1884C117.615 62.2426 117.468 65.1269 117.468 65.1269H123.935C123.935 65.1269 124.167 63.0553 124.167 61.1621C124.167 61.1621 127.363 66.1609 136.051 66.1609C145.2 66.1609 151.415 59.8091 151.415 50.7088C151.415 42.2429 145.706 35.434 136.066 35.434C127.038 35.434 124.233 40.3089 124.233 40.3089V24H117.615ZM134.396 39.9101C140.609 39.9101 144.56 44.5211 144.56 50.7088C144.56 57.3441 139.997 61.6849 134.441 61.6849C127.81 61.6849 124.233 56.5074 124.233 50.7679C124.233 45.4198 127.442 39.9101 134.396 39.9101Z" fill="#0064D2"/>
<path d="M167.488 35.3456C153.717 35.3456 152.833 42.8861 152.833 44.091H159.688C159.688 44.091 160.047 39.6888 167.015 39.6888C171.543 39.6888 175.052 41.7612 175.052 45.7455V47.1637H167.015C156.346 47.1637 150.706 50.2847 150.706 56.6182C150.706 62.8512 155.918 66.2425 162.96 66.2425C172.558 66.2425 175.65 60.9391 175.65 60.9391C175.65 63.0485 175.813 65.1272 175.813 65.1272H181.906C181.906 65.1272 181.67 62.5506 181.67 60.9022V46.6541C181.67 37.3117 174.134 35.3456 167.488 35.3456ZM175.052 51.4182V53.3091C175.052 55.7753 173.53 61.9067 164.57 61.9067C159.664 61.9067 157.561 59.4582 157.561 56.6182C157.561 51.4515 164.645 51.4182 175.052 51.4182Z" fill="#F5AF02"/>
<path d="M177.976 36.5277H185.687L196.754 58.6992L207.796 36.5277H214.781L194.669 76H187.342L193.145 64.9966L177.976 36.5277Z" fill="#86B817"/>
</svg>
