<svg width="364" height="100" viewBox="0 0 364 100" fill="none" xmlns="http://www.w3.org/2000/svg">
<path d="M122.126 31.3869C122.084 31.0928 121.832 30.9247 121.622 30.9247C121.412 30.9247 117.252 30.8407 117.252 30.8407C117.252 30.8407 113.765 27.4794 113.429 27.1012C113.092 26.7651 112.42 26.8491 112.168 26.9331C112.168 26.9331 111.496 27.1432 110.403 27.4794C110.235 26.8911 109.941 26.1768 109.563 25.4205C108.345 23.0676 106.496 21.8071 104.311 21.8071C104.143 21.8071 104.017 21.8071 103.849 21.8491C103.765 21.7651 103.723 21.681 103.639 21.639C102.672 20.6306 101.454 20.1264 99.9832 20.1684C97.1681 20.2525 94.353 22.3113 92.042 25.9247C90.4454 28.4878 89.2269 31.681 88.8488 34.16C85.6135 35.1684 83.3445 35.8827 83.2605 35.8827C81.6219 36.3869 81.5798 36.4289 81.3698 37.9836C81.2857 39.16 77 72.3113 77 72.3113L112.966 78.5298L128.555 74.6642C128.513 74.6642 122.168 31.681 122.126 31.3869ZM108.597 28.0676C107.756 28.3197 106.832 28.6138 105.824 28.95C105.824 27.5214 105.613 25.5046 104.983 23.8239C107.126 24.16 108.177 26.597 108.597 28.0676ZM103.933 29.4962C102.042 30.0844 99.9832 30.7147 97.9244 31.3449C98.5126 29.118 99.6051 26.9331 100.95 25.4626C101.454 24.9163 102.168 24.3281 102.966 23.992C103.807 25.6306 103.975 27.9416 103.933 29.4962ZM100.067 22.0592C100.74 22.0592 101.286 22.1852 101.748 22.5214C100.992 22.8995 100.235 23.4878 99.5631 24.2441C97.7563 26.1768 96.3698 29.16 95.8236 32.0592C94.1009 32.6054 92.4202 33.1096 90.9076 33.5718C91.916 28.992 95.7395 22.1852 100.067 22.0592Z" fill="#95BF47"/>
<path d="M121.622 30.9247C121.412 30.9247 117.252 30.8407 117.252 30.8407C117.252 30.8407 113.765 27.4794 113.429 27.1012C113.303 26.9752 113.134 26.8911 112.966 26.8911L112.966 78.5298L128.555 74.6642C128.555 74.6642 122.21 31.681 122.168 31.3869C122.084 31.0928 121.832 30.9247 121.622 30.9247Z" fill="#5E8E3E"/>
<path d="M104.311 38.95L102.504 45.7147C102.504 45.7147 100.487 44.7903 98.0925 44.9584C94.5631 45.1684 94.5631 47.3953 94.5631 47.9416C94.7731 50.9668 102.714 51.639 103.177 58.7399C103.513 64.3281 100.235 68.1516 95.4454 68.4458C89.7311 68.7399 86.5798 65.3785 86.5798 65.3785L87.7983 60.2105C87.7983 60.2105 90.9916 62.6054 93.5126 62.4373C95.1513 62.3533 95.7815 60.9668 95.6975 60.0424C95.4454 56.0928 88.9748 56.3449 88.5546 49.8323C88.2185 44.3701 91.7899 38.8659 99.6891 38.3617C102.756 38.1516 104.311 38.95 104.311 38.95Z" fill="white"/>
<path d="M149.647 53.3617C147.84 52.3953 146.916 51.555 146.916 50.4205C146.916 48.992 148.219 48.0676 150.235 48.0676C152.588 48.0676 154.689 49.034 154.689 49.034L156.328 43.992C156.328 43.992 154.815 42.8155 150.361 42.8155C144.143 42.8155 139.815 46.3869 139.815 51.3869C139.815 54.2441 141.832 56.3869 144.521 57.9416C146.706 59.16 147.462 60.0424 147.462 61.3449C147.462 62.6895 146.37 63.7819 144.353 63.7819C141.37 63.7819 138.513 62.2273 138.513 62.2273L136.748 67.2693C136.748 67.2693 139.353 69.034 143.765 69.034C150.151 69.034 154.773 65.8827 154.773 60.2105C154.731 57.1432 152.42 54.9584 149.647 53.3617Z" fill="#000008"/>
<path d="M175.109 42.7315C171.958 42.7315 169.479 44.2441 167.588 46.513L167.504 46.471L170.235 32.1852H163.135L156.202 68.5718H163.303L165.656 56.1348C166.58 51.4289 169.017 48.5298 171.286 48.5298C172.882 48.5298 173.513 49.6222 173.513 51.1768C173.513 52.1432 173.429 53.3617 173.219 54.3281L170.53 68.5718H177.63L180.403 53.8659C180.698 52.3113 180.908 50.4626 180.908 49.2021C180.95 45.1684 178.849 42.7315 175.109 42.7315Z" fill="#000008"/>
<path d="M197.042 42.7313C188.471 42.7313 182.799 50.4624 182.799 59.0758C182.799 64.58 186.202 69.0338 192.589 69.0338C200.992 69.0338 206.664 61.5128 206.664 52.6893C206.706 47.6053 203.723 42.7313 197.042 42.7313ZM193.555 63.6137C191.118 63.6137 190.11 61.5548 190.11 58.9498C190.11 54.8742 192.21 48.2355 196.076 48.2355C198.597 48.2355 199.437 50.4204 199.437 52.5212C199.437 56.891 197.294 63.6137 193.555 63.6137Z" fill="#000008"/>
<path d="M224.899 42.7313C220.11 42.7313 217.378 46.975 217.378 46.975H217.294L217.715 43.1515H211.412C211.118 45.7145 210.53 49.6641 209.983 52.6053L205.025 78.6557H212.126L214.101 68.1095H214.269C214.269 68.1095 215.74 69.0338 218.429 69.0338C226.79 69.0338 232.252 60.4624 232.252 51.8069C232.252 47.017 230.11 42.7313 224.899 42.7313ZM218.093 63.6977C216.244 63.6977 215.152 62.6473 215.152 62.6473L216.328 56.0086C217.168 51.5548 219.479 48.6137 221.958 48.6137C224.143 48.6137 224.815 50.6305 224.815 52.5212C224.815 57.1431 222.084 63.6977 218.093 63.6977Z" fill="#000008"/>
<path d="M242.42 32.5214C240.151 32.5214 238.345 34.3281 238.345 36.639C238.345 38.7399 239.689 40.2105 241.706 40.2105H241.79C244.017 40.2105 245.908 38.6979 245.95 36.0928C245.95 34.034 244.563 32.5214 242.42 32.5214Z" fill="#000008"/>
<path d="M232.462 68.5298H239.563L244.395 43.3197H237.252L232.462 68.5298Z" fill="#000008"/>
<path d="M262.504 43.2777H257.546L257.799 42.1012C258.219 39.6642 259.647 37.5214 262.042 37.5214C263.303 37.5214 264.311 37.8995 264.311 37.8995L265.698 32.3113C265.698 32.3113 264.479 31.681 261.832 31.681C259.311 31.681 256.79 32.3953 254.857 34.034C252.42 36.0928 251.286 39.076 250.74 42.1012L250.53 43.2777H247.21L246.16 48.6558H249.479L245.698 68.5718H252.799L256.58 48.6558H261.496L262.504 43.2777Z" fill="#000008"/>
<path d="M279.647 43.3197C279.647 43.3197 275.194 54.5382 273.219 60.6726H273.135C273.009 58.6979 271.37 43.3197 271.37 43.3197H263.891L268.177 66.471C268.261 66.9752 268.219 67.3113 268.009 67.6474C267.168 69.2441 265.782 70.7987 264.143 71.9331C262.799 72.8995 261.286 73.5298 260.11 73.95L262.084 80.0004C263.513 79.7063 266.538 78.4878 269.059 76.1348C272.295 73.1096 275.32 68.4037 278.387 62.0172L287.084 43.3197H279.647Z" fill="#000008"/>
</svg>
