<svg width="300" height="100" viewBox="0 0 300 100" fill="none" xmlns="http://www.w3.org/2000/svg">
<path d="M92.2566 42.8082V56.1987C92.2566 62.8869 86.8153 68.3291 80.128 68.3354C77.6397 68.3374 75.2118 67.5695 73.1772 66.1371C71.0829 63.8975 69.9185 60.9453 69.9199 57.879C69.9199 51.287 75.2064 45.9106 81.762 45.7575V50.9194C81.2335 50.7514 80.6825 50.665 80.128 50.6631C78.8893 50.6625 77.6862 51.0774 76.7111 51.8413C75.736 52.6052 75.0453 53.674 74.7493 54.8768C74.4533 56.0796 74.5693 57.3469 75.0786 58.476C75.5879 59.6052 76.4611 60.5309 77.5586 61.1052C78.2308 62.043 79.1797 62.747 80.2721 63.1185C81.3646 63.4899 82.5459 63.5103 83.6505 63.1767C84.7551 62.843 85.7276 62.1722 86.4317 61.2581C87.1359 60.3439 87.5364 59.2324 87.5771 58.0793L87.5878 31.6719H92.4114C92.64 32.8935 93.1141 34.0561 93.8051 35.0891C94.4961 36.1222 95.3896 37.0042 96.4315 37.6819C97.7322 39.1802 99.4838 40.2164 101.423 40.6348V45.7558C98.1341 45.7597 94.927 44.7285 92.2566 42.8082Z" fill="#000008"/>
<path d="M130.458 40.6562H109.865L109.871 46.5568L116.567 46.5443V68.323H123.227V46.547H128.567L130.458 40.6562Z" fill="#000008"/>
<path d="M164.183 40.6562H185.247L183.357 46.547H177.55V68.323H170.884V46.5443L164.187 46.5568L164.183 40.6562Z" fill="#000008"/>
<path d="M138.312 49.457H131.711L131.75 68.3236H138.305L138.312 49.457Z" fill="#000008"/>
<path d="M140.929 40.5791H147.523V53.4669L154.058 47.059H161.929L153.663 55.0688L162.919 68.3197H155.654L149.478 59.1342L147.52 61.0343V68.3232H140.926L140.929 40.5791Z" fill="#000008"/>
<path d="M217.389 40.5791H210.795L210.789 68.3197H217.383V61.0308L219.341 59.1307L225.52 68.3197H232.785L223.529 55.0688L231.795 47.059H223.923L217.389 53.4669V40.5791Z" fill="#000008"/>
<path d="M135.009 47.3006C136.844 47.3006 138.332 45.8128 138.332 43.9775C138.332 42.1421 136.844 40.6543 135.009 40.6543C133.173 40.6543 131.686 42.1421 131.686 43.9775C131.686 45.8128 133.173 47.3006 135.009 47.3006Z" fill="#000008"/>
<path fill-rule="evenodd" clip-rule="evenodd" d="M189.319 47.6389C191.176 46.3978 193.36 45.7354 195.594 45.7354C198.589 45.7351 201.461 46.9246 203.579 49.042C205.697 51.1595 206.887 54.0316 206.887 57.0265C206.888 59.2603 206.226 61.4441 204.985 63.3017C203.745 65.1593 201.981 66.6073 199.917 67.4625C197.854 68.3177 195.583 68.5417 193.392 68.1063C191.201 67.6708 189.188 66.5954 187.609 65.016C186.029 63.4367 184.953 61.4243 184.517 59.2334C184.081 57.0426 184.305 54.7716 185.159 52.7078C186.014 50.644 187.462 48.88 189.319 47.6389ZM192.544 61.5943C193.446 62.1975 194.508 62.5194 195.594 62.5194C196.315 62.5194 197.029 62.3773 197.695 62.1012C198.362 61.8252 198.967 61.4205 199.477 60.9104C199.987 60.4003 200.391 59.7948 200.667 59.1283C200.942 58.4619 201.084 57.7477 201.084 57.0265C201.083 55.9407 200.761 54.8795 200.157 53.977C199.554 53.0745 198.696 52.3712 197.693 51.956C196.69 51.5409 195.586 51.4326 194.521 51.6447C193.456 51.8569 192.478 52.38 191.71 53.1479C190.943 53.9158 190.42 54.8941 190.209 55.959C189.997 57.024 190.106 58.1277 190.522 59.1308C190.937 60.1339 191.641 60.9912 192.544 61.5943Z" fill="#000008"/>
<path d="M82.0494 63.4106C83.4811 63.4082 84.8563 62.8518 85.8869 61.8581C86.9174 60.8643 87.5226 59.5099 87.5771 58.0793L87.5878 31.6719H92.4114C92.3088 31.1204 92.2578 30.561 92.2575 30H85.6716L85.6574 56.4038C85.6243 57.3387 85.3545 58.2498 84.8733 59.0519C84.392 59.854 83.7151 60.5209 82.9058 60.99C82.0965 61.4591 81.1814 61.7151 80.2462 61.7341C79.311 61.7531 78.3862 61.5344 77.5586 61.0985C78.0696 61.8129 78.7435 62.3953 79.5245 62.7974C80.3055 63.1995 81.171 63.4097 82.0494 63.4106Z" fill="#25F4EE"/>
<path d="M81.7626 45.7497V44.1887C81.2212 44.1127 80.6753 44.0732 80.1286 44.0703C73.4404 44.0703 68 49.5116 68 56.1989C68.0008 58.1486 68.4718 60.0692 69.3733 61.798C70.2747 63.5267 71.5798 65.0125 73.1779 66.1293C71.0836 63.8896 69.9191 60.9375 69.9206 57.8712C69.9206 51.2791 75.207 45.9019 81.7626 45.7497Z" fill="#25F4EE"/>
<path d="M101.423 40.6348L101.424 39.1671C99.6505 39.1689 97.9154 38.6523 96.4315 37.6819C97.7322 39.1802 99.4838 40.2164 101.423 40.6348Z" fill="#25F4EE"/>
<path d="M187.407 49.3608C185.477 51.4473 184.405 54.1849 184.404 57.0272C184.405 59.8694 185.477 62.6069 187.407 64.6933C189.337 66.7797 191.983 68.0614 194.817 68.2827C194.525 68.3059 194.125 68.321 193.828 68.321C190.833 68.321 187.96 67.1311 185.842 65.0131C183.724 62.8951 182.534 60.0225 182.534 57.0272C182.534 54.0319 183.724 51.1593 185.842 49.0413C187.96 46.9233 190.833 45.7334 193.828 45.7334C194.125 45.7334 194.525 45.7485 194.817 45.7708C191.983 45.9923 189.337 47.2743 187.407 49.3608Z" fill="#25F4EE"/>
<path d="M96.4315 37.6819C94.9767 36.0178 94.1763 33.8822 94.1778 31.6719H92.4114C92.64 32.8935 93.1141 34.0561 93.8051 35.0891C94.4961 36.1222 95.3896 37.0042 96.4315 37.6819Z" fill="#FE2C55"/>
<path d="M80.1289 50.6603C78.8902 50.6597 77.6871 51.0746 76.712 51.8385C75.7369 52.6024 75.0462 53.6712 74.7502 54.874C74.4542 56.0768 74.5702 57.3441 75.0795 58.4732C75.5888 59.6024 76.462 60.5281 77.5595 61.1024C76.8738 60.1631 76.5023 59.0312 76.4982 57.8682C76.4941 56.7053 76.8576 55.5708 77.5367 54.6267C78.2158 53.6826 79.1758 52.9772 80.2797 52.6112C81.3836 52.2453 82.5749 52.2374 83.6834 52.5889V45.8615C83.1421 45.7851 82.5962 45.7455 82.0494 45.7432C81.992 45.7432 81.9351 45.7451 81.8782 45.747C81.8399 45.7483 81.8012 45.749 81.7626 45.7497L81.7629 50.9121C81.2342 50.7456 80.6832 50.6607 80.1289 50.6603Z" fill="#FE2C55"/>
<path d="M101.423 40.6348V45.7558C98.1341 45.7597 94.927 44.7285 92.2566 42.8082V56.1987C92.2566 62.8869 86.8157 68.3273 80.1285 68.3273C77.6402 68.3293 75.2124 67.5617 73.1779 66.1293C74.3104 67.3505 75.6828 68.3244 77.2093 68.9904C78.7359 69.6564 80.3835 70 82.049 69.9995C88.7363 69.9995 94.1776 64.5582 94.1776 57.8709V44.4777C96.8482 46.3978 100.055 47.4291 103.344 47.4253V40.8395C102.699 40.839 102.055 40.7705 101.423 40.6348Z" fill="#FE2C55"/>
<path d="M196.381 45.7736C196.675 45.7505 197.077 45.7354 197.378 45.7354C200.373 45.7354 203.246 46.9252 205.364 49.0432C207.482 51.1612 208.671 54.0339 208.671 57.0292C208.671 60.0245 207.482 62.8971 205.364 65.0151C203.246 67.1331 200.373 68.323 197.378 68.323C197.077 68.323 196.675 68.3078 196.381 68.2847C199.213 68.0621 201.858 66.7797 203.787 64.6934C205.715 62.6071 206.786 59.8704 206.786 57.0292C206.786 54.1879 205.715 51.4512 203.787 49.3649C201.858 47.2786 199.213 45.9962 196.381 45.7736Z" fill="#FE2C55"/>
</svg>
